<svg viewBox="0 0 46 31" fill="none" height="31" width="46" xmlns="http://www.w3.org/2000/svg"><g clip-path="url(#a)"><path d="M46 0v16H30V0z" fill="#fff"></path><path clip-rule="evenodd" d="M45 15V1H31v14zm1-15H30v16h16z" fill-rule="evenodd" fill="#A3A2A1"></path><path d="M0 15v16h16V15z" fill="#fff"></path><path clip-rule="evenodd" d="M1 30V16h14v14zM0 15h16v16H0z" fill-rule="evenodd" fill="#A3A2A1"></path><path d="M31 0v16H15V0z" fill="#fff"></path><path clip-rule="evenodd" d="M30 15V1H16v14zm1-15H15v16h16z" fill-rule="evenodd" fill="#A3A2A1"></path><path d="M16 0v16H0V0z" fill="#fff"></path><path clip-rule="evenodd" d="M15 15V1H1v14zm1-15H0v16h16z" fill-rule="evenodd" fill="#A3A2A1"></path><path d="M3 0v4h13V0z" fill="#fff"></path><path clip-rule="evenodd" d="M4 3V1h11v2zM3 0h13v4H3z" fill-rule="evenodd" fill="#A3A2A1"></path><path d="M46 16h-4V3h4z" fill="#fff"></path><path clip-rule="evenodd" d="M43 15h2V4h-2zm3 1V3h-4v13z" fill-rule="evenodd" fill="#A3A2A1"></path><path d="M0 28h4V15H0z" fill="#fff"></path><path clip-rule="evenodd" d="M3 27H1V16h2zm-3 1V15h4v13z" fill-rule="evenodd" fill="#A3A2A1"></path><path d="M30 4V0h16v4z" fill="#fff"></path><path clip-rule="evenodd" d="M31 1v2h14V1zm-1 3h16V0H30z" fill-rule="evenodd" fill="#A3A2A1"></path><path d="M16 27v4H0v-4z" fill="#fff"></path><path clip-rule="evenodd" d="M15 30v-2H1v2zm1-3H0v4h16z" fill-rule="evenodd" fill="#A3A2A1"></path><path d="M15 0v4h16V0z" fill="#fff"></path><path clip-rule="evenodd" d="M16 3V1h14v2zm-1-3h16v4H15z" fill-rule="evenodd" fill="#A3A2A1"></path><path d="M4 0H0v16h4z" fill="#fff"></path><path clip-rule="evenodd" d="M1 1h2v14H1zm3-1v16H0V0z" fill-rule="evenodd" fill="#A3A2A1"></path></g><defs><clipPath id="a"><path d="M0 0h46v31H0z" fill="#fff"></path></clipPath></defs></svg>