<svg viewBox="0 0 16 25" fill="none" height="25" width="16" xmlns="http://www.w3.org/2000/svg"><g clip-path="url(#a)"><path d="M0 0h16v16H0z" fill="#fff"></path><path clip-rule="evenodd" d="M16 16V0H0v16h1V1h14v15z" fill-rule="evenodd" fill="#A3A2A1"></path><path d="M3 15h10v10H3z" fill="#fff"></path><path clip-rule="evenodd" d="M3 15v10h10V15h-1v9H4v-9z" fill-rule="evenodd" fill="#A3A2A1"></path><path d="M13 0v4H3V0z" fill="#fff"></path><path clip-rule="evenodd" d="M12 3V1H4v2zm1-3H3v4h10z" fill-rule="evenodd" fill="#A3A2A1"></path><path d="M4 16H0V0h4z" fill="#fff"></path><path clip-rule="evenodd" d="M1 15h2V1H1zm3 1V0H0v16z" fill-rule="evenodd" fill="#A3A2A1"></path><path d="M12 16h4V0h-4z" fill="#fff"></path><path clip-rule="evenodd" d="M15 15h-2V1h2zm-3 1V0h4v16z" fill-rule="evenodd" fill="#A3A2A1"></path></g><defs><clipPath id="a"><path d="M0 0h16v25H0z" fill="#fff"></path></clipPath></defs></svg>